<svg xmlns="http://www.w3.org/2000/svg" xml:space="preserve" data-id="lg_FNjGNjBUBlJ5M8lLVO" data-version="1" viewBox="718 -0.5 564 211"><g data-padding="20"><g transform="translate(10 3.73)scale(.96448)"><rect width="560" height="210.18" x="344.694" y="-400.18" fill="none" rx="0" ry="0" transform="translate(400.5 400.09)"/><path d="M887.504 70.43v93h-25.98v-93q0-2.73-1.04-5.09-1.05-2.36-2.82-4.13t-4.13-2.77-5.09-1q-2.72 0-5.08 1t-4.13 2.77q-1.78 1.77-2.77 4.13-1 2.36-1 5.09v93h-26.07v-93q0-2.73-1-5.09t-2.77-4.13-4.13-2.77-5.09-1q-2.72 0-5.08 1t-4.13 2.77q-1.78 1.77-2.77 4.13-1 2.36-1 5.09v93h-26.07v-93q0-8.08 3.04-15.21 3.05-7.13 8.36-12.45 5.31-5.31 12.44-8.35t15.21-3.04q7.27 0 13.99 2.58 6.72 2.59 12.08 7.5 5.36-4.91 12.03-7.5 6.68-2.58 13.94-2.58 8.09 0 15.22 3.04t12.44 8.35q5.31 5.32 8.35 12.45 3.05 7.13 3.05 15.21m114.62 43.51q0 10.9-3.9 20.3-3.91 9.4-10.63 16.26-6.72 6.85-15.76 10.8-9.03 3.96-19.39 3.96-10.26 0-19.3-3.96-9.03-3.95-15.8-10.8-6.77-6.86-10.67-16.26-3.91-9.4-3.91-20.3 0-11.08 3.91-20.52 3.9-9.45 10.67-16.31 6.77-6.85 15.8-10.76 9.04-3.9 19.3-3.9 10.36 0 19.39 3.68 9.04 3.67 15.76 10.44t10.63 16.26q3.9 9.49 3.9 21.11m-24.97 0q0-5.99-1.96-10.85-1.95-4.86-5.31-8.36-3.36-3.49-7.86-5.35-4.49-1.87-9.58-1.87-5.08 0-9.58 1.87-4.49 1.86-7.81 5.35-3.31 3.5-5.22 8.36t-1.91 10.85q0 5.63 1.91 10.45 1.91 4.81 5.22 8.35 3.32 3.54 7.81 5.59 4.5 2.04 9.58 2.04 5.09 0 9.58-1.91 4.5-1.9 7.86-5.35 3.36-3.46 5.31-8.36 1.96-4.9 1.96-10.81m132.68 0q0 10.9-3.9 20.3-3.91 9.4-10.63 16.26-6.72 6.85-15.75 10.8-9.04 3.96-19.39 3.96-10.27 0-19.3-3.96-9.04-3.95-15.81-10.8-6.76-6.86-10.67-16.26-3.9-9.4-3.9-20.3 0-11.08 3.9-20.52 3.91-9.45 10.67-16.31 6.77-6.85 15.81-10.76 9.03-3.9 19.3-3.9 10.35 0 19.39 3.68 9.03 3.67 15.75 10.44t10.63 16.26q3.9 9.49 3.9 21.11m-24.97 0q0-5.99-1.95-10.85-1.96-4.86-5.32-8.36-3.36-3.49-7.85-5.35-4.5-1.87-9.58-1.87-5.09 0-9.59 1.87-4.49 1.86-7.81 5.35-3.31 3.5-5.22 8.36t-1.91 10.85q0 5.63 1.91 10.45 1.91 4.81 5.22 8.35 3.32 3.54 7.81 5.59 4.5 2.04 9.59 2.04 5.08 0 9.58-1.91 4.49-1.9 7.85-5.35 3.36-3.46 5.32-8.36 1.95-4.9 1.95-10.81m91.18 49.5h-24.88l-37.06-97.27h28.25l21.25 60.67 21.16-60.67h28.34Zm131.69-79.83-46.5 56.03q1.46.46 2.91.59 1.45.14 2.9.14 3.64 0 7-1t6.31-2.86 5.27-4.54q2.31-2.68 3.77-5.95l18.16 18.26q-3.45 4.9-7.95 8.81-4.49 3.9-9.71 6.63-5.23 2.72-10.99 4.13-5.77 1.41-11.86 1.41-10.26 0-19.29-3.82-9.04-3.81-15.81-10.62-6.76-6.82-10.67-16.22-3.9-9.4-3.9-20.66 0-11.53 3.9-21.07 3.91-9.53 10.67-16.26 6.77-6.72 15.81-10.44 9.03-3.72 19.29-3.72 6.09 0 11.9 1.45t11.04 4.18q5.22 2.72 9.76 6.67t7.99 8.86m-62.66 43.23 28.88-38.33q-1.73-.63-3.41-.82-1.68-.18-3.5-.18-5.08 0-9.58 1.87-4.49 1.86-7.81 5.31-3.31 3.45-5.22 8.31t-1.91 10.94q0 1.36.14 3.09t.45 3.5q.32 1.77.78 3.4.45 1.64 1.18 2.91"/></g><path fill="transparent" stroke="transparent" d="M718.5 0h563v210h-563z"/></g></svg>